{"title":"Zookeeper 2011 XViD Cam x264 Feel-Free","uid":6547963,"size":1248354137,"categoryP":"video","categoryS":"movies","magnet":"?xt=urn:btih:3a4120a04ee9a62615d035fe220972cd62e467b8&amp;dn=Zookeeper+2011+XViD+Cam+x264+Feel-Free&amp;tr=udp%3A%2F%2Ftracker.openbittorrent.com%3A80&amp;tr=udp%3A%2F%2Fopen.demonii.com%3A1337&amp;tr=udp%3A%2F%2Ftracker.coppersurfer.tk%3A6969&amp;tr=udp%3A%2F%2Fexodus.desync.com%3A6969","seeders":0,"leechers":1,"uploader":".BONE.","files":8,"time":1310946732,"description":"Genre:Comedy | Family | Romance\n Language:English\n  &lt;a href=&quot;\nhttp://www.imdb.com/title/tt1222817/&quot; rel=&quot;nofollow&quot; target=&quot;_NEW&quot;&gt;\nhttp://www.imdb.com/title/tt1222817/&lt;/a&gt;\n\n Source:ERDNA Thanks!\n \nFormat : MPEG-4\n Format profile : Base Media\n Codec ID : isom\n File size : 1.16 GiB\n Duration : 1h 36mn\n Overall bit rate : 1 723 Kbps\n \nVideo\n ID : 1\n Format : AVC\n Format/Info : Advanced Video Codec\n Format profile : &lt;a class=&quot;__cf_email__&quot; href=&quot;/cdn-cgi/l/email-protection&quot; data-cfemail=&quot;5e163739361e126a706f&quot;&gt;[email&amp;#160;protected]&lt;/a&gt;&lt;script cf-hash='f9e31' type=&quot;text/javascript&quot;&gt;\n/* &lt;![CDATA[ */!function(){try{var t=&quot;currentScript&quot;in document?document.currentScript:function(){for(var t=document.getElementsByTagName(&quot;script&quot;),e=t.length;e--;)if(t[e].getAttribute(&quot;cf-hash&quot;))return t[e]}();if(t&amp;&amp;t.previousSibling){var e,r,n,i,c=t.previousSibling,a=c.getAttribute(&quot;data-cfemail&quot;);if(a){for(e=&quot;&quot;,r=parseInt(a.substr(0,2),16),n=2;a.length-n;n+=2)i=parseInt(a.substr(n,2),16)^r,e+=String.fromCharCode(i);e=document.createTextNode(e),c.parentNode.replaceChild(e,c)}}}catch(u){}}();/* ]]&gt; */&lt;/script&gt;\n Format settings, CABAC : Yes\n Format settings, ReFrames : 3 frames\n Codec ID : avc1\n Codec ID/Info : Advanced Video Coding\n Duration : 1h 36mn\n Bit rate mode : Variable\n Bit rate : 1 500 Kbps\n Maximum bit rate : 6 121 Kbps\n Width : 720 pixels\n Height : 304 pixels\n Display aspect ratio : 2.35:1\n Frame rate mode : Constant\n Frame rate : 23.976 fps\n Color space : YUV\n Chroma subsampling : 4:2:0\n Bit depth : 8 bits\n Scan type : Progressive\n Bits/(Pixel*Frame) : 0.286\n Stream size : 1.01 GiB (87%)\n Writing library : x264\n \nAudio\n ID : 2\n Format : AAC\n Format/Info : Advanced Audio Codec\n Format version : Version 4\n Format profile : LC\n Format settings, SBR : No\n Codec ID : 40\n Duration : 1h 36mn\n Bit rate mode : Variable\n Bit rate : 224 Kbps\n Maximum bit rate : 285 Kbps\n Channel(s) : 2 channels\n Channel positions : Front: L R\n Sampling rate : 48.0 KHz\n Stream size : 155 MiB (13%)\n \n\nPlot:\n A group of zoo animals decide to break their code of silence in order to help their lovable zookeeper (Kevin James) find love -- without opting to leave his current job for something more illustrious. woman.\n  &lt;a href=&quot;\nhttp://leetleech.org/images/29840159962994829652.png&quot; rel=&quot;nofollow&quot; target=&quot;_NEW&quot;&gt;\nhttp://leetleech.org/images/29840159962994829652.png&lt;/a&gt;\n &lt;a href=&quot;\nhttp://leetleech.org/images/98303707042118889717.png&quot; rel=&quot;nofollow&quot; target=&quot;_NEW&quot;&gt;\nhttp://leetleech.org/images/98303707042118889717.png&lt;/a&gt;\n &lt;a href=&quot;\nhttp://leetleech.org/images/69965116680201776887.png&quot; rel=&quot;nofollow&quot; target=&quot;_NEW&quot;&gt;\nhttp://leetleech.org/images/69965116680201776887.png&lt;/a&gt;\n &lt;a href=&quot;\nhttp://leetleech.org/images/54062828403134335794.png&quot; rel=&quot;nofollow&quot; target=&quot;_NEW&quot;&gt;\nhttp://leetleech.org/images/54062828403134335794.png&lt;/a&gt;","torrent":{"xt":"urn:btih:3a4120a04ee9a62615d035fe220972cd62e467b8","amp;dn":"Zookeeper+2011+XViD+Cam+x264+Feel-Free","amp;tr":["udp%3A%2F%2Ftracker.openbittorrent.com%3A80","udp%3A%2F%2Fopen.demonii.com%3A1337","udp%3A%2F%2Ftracker.coppersurfer.tk%3A6969","udp%3A%2F%2Fexodus.desync.com%3A6969"],"infoHash":"3a4120a04ee9a62615d035fe220972cd62e467b8","infoHashBuffer":{"type":"Buffer","data":[58,65,32,160,78,233,166,38,21,208,53,254,34,9,114,205,98,228,103,184]},"announce":[],"urlList":[]}}